<svg xmlns="http://www.w3.org/2000/svg" viewBox="0 0 500 500" width="100%" height="100%">
  <!-- Globe Grid Lines -->
  <circle cx="250" cy="210" r="130" fill="none" stroke="#144B27" stroke-width="6" opacity="0.3" />
  <path d="M 250,80 A 90,130 0 0,0 250,340 A 90,130 0 0,0 250,80" fill="none" stroke="#144B27" stroke-width="4" opacity="0.25" />
  <path d="M 250,80 A 40,130 0 0,0 250,340 A 40,130 0 0,0 250,80" fill="none" stroke="#144B27" stroke-width="4" opacity="0.25" />
  <line x1="120" y1="210" x2="380" y2="210" stroke="#144B27" stroke-width="4" opacity="0.25" />
  <path d="M 140,150 Q 250,180 360,150" fill="none" stroke="#144B27" stroke-width="4" opacity="0.25" />
  <path d="M 140,270 Q 250,240 360,270" fill="none" stroke="#144B27" stroke-width="4" opacity="0.25" />

  <!-- Upward Export Arrow -->
  <path d="M 285,160 L 285,85 L 273,85 L 290,60 L 307,85 L 295,85 L 295,160 Z" fill="#144B27" />

  <!-- Green Leaf (Left) -->
  <path d="M 250,210 C 180,250 130,230 120,340 C 170,360 240,280 250,210 Z" fill="#144B27" />
  <path d="M 250,210 C 200,270 160,290 150,345 C 190,330 230,290 250,210 Z" fill="#0B2B16" opacity="0.2" />

  <!-- Gold Leaf (Right) -->
  <path d="M 250,210 C 320,250 370,230 380,340 C 330,360 260,280 250,210 Z" fill="#D4B26F" />
  <path d="M 250,210 C 300,270 340,290 350,345 C 310,330 270,290 250,210 Z" fill="#A88448" opacity="0.2" />

  <!-- Center Sprout -->
  <path d="M 250,210 Q 270,170 255,140 Q 240,175 250,210" fill="#144B27" />
  
  <!-- Logo Typography -->
  <text x="250" y="415" font-family="'Plus Jakarta Sans', -apple-system, sans-serif" font-size="46" font-weight="900" fill="#144B27" text-anchor="middle" letter-spacing="1">AgroVista</text>
  <text x="250" y="470" font-family="'Plus Jakarta Sans', -apple-system, sans-serif" font-size="38" font-weight="700" fill="#D4B26F" text-anchor="middle" letter-spacing="4">EXPORTS</text>
</svg>
